<svg xmlns="http://www.w3.org/2000/svg" xmlns:xlink="http://www.w3.org/1999/xlink">
  <symbol id="logo" viewBox="0 0 500 500">
    <g>
      <path d="M303.84,31.86h-4.09c-15,0-30.05,0-45.07,0-3.87,0-7-1.05-9.25-4.5a27.91,27.91,0,0,0-46.46-.1,9.76,9.76,0,0,1-8.59,4.57l-30.92,0h-19V84H303.84Z"/>
      <path d="M431.57,407.81q-16.41-.06-32.82,0c-4.08,0-6,2-6,6,0,7,.09,13.9.13,20.85,0,2.24,0,4.48,0,6.83H259.44c.57-.88.9-1.44,1.28-1.95q6-8,11.92-16l4.38-5.84,18.06-24.12,36.44-48.66c2.72-3.63,2.75-5.24.06-8.83l-39.79-53.15-30.69-41c-.52-.69-1-1.41-1.73-2.45H392.6c.06.57.12.88.12,1.18,0,8.91,0,17.81,0,26.71,0,3.74,1.95,5.61,5.8,5.67,2.25,0,4.5,0,6.76,0,8.84,0,17.69.07,26.54,0,3.71,0,5.61-2,5.62-5.55,0-4.76,0-9.53,0-14.29v-51.8c0-3.49-1.83-5.24-5.55-5.24q-25.83,0-51.66,0l-32.54,0-51.6,0h-26.5q-47.19,0-94.38-.09a4.08,4.08,0,0,0-4.22,2.52,5.1,5.1,0,0,0,.71,5.46c1.39,1.78,2.85,3.51,4.21,5.31q18.51,24.5,37,49,24.78,32.8,49.57,65.59c4.12,5.44,8.26,10.85,12.33,16.19-2.46,3.65-4.66,7.19-7.13,10.5-2.65,3.56-5.64,6.8-8.32,10.33q-12.31,16.23-24.62,32.48-9.16,12.09-18.31,24.19L210,426.2c-12.52,16.55-25,33.16-37.55,49.68-1.44,1.89-2.49,3.74-1.52,6.13s2.94,3.11,5.29,3.1c14.59-.05,29.17,0,43.76,0H322.45l4.1,0h32.21q36.53,0,73.06,0a5.28,5.28,0,0,0,5.65-5.62c0-.63-.11-1.25-.11-1.87q0-32,.11-64C437.48,409.78,435.54,407.82,431.57,407.81Z"/>
      <path d="M177.43,417.7l18.73-24.19q-14,0-27.95,0H148.73v0H92.65c-7.88,0-11-3.08-11-11q0-50.5,0-101V132.11q0-18.42,0-36.85c0-7.72,3.33-11.07,11-11.07h16.45c1,0,1.91-.13,2.88-.2V62.46a5.26,5.26,0,0,0-1.09-.29c-11.73,0-23.46-.13-35.18,0-7.32.1-13.23,6.91-13.18,13.66.27,35.74.13,71.49.13,107.23v88.15q0,66.63,0,133.26a11.83,11.83,0,0,0,.53,3.85c2.18,6.21,7.2,9.44,14.6,9.43l50.52,0,19.66,0Z"/>
      <path d="M363.6,417.84c9.54.07,17.31-5.56,17.09-17-.25-12.54-.19-25.1-.13-37.65h0V269.6c-1.3,1.13-2,1.71-2.71,2.37-5,4.95-11.68-6.07-16.46-.94-1.19,1.27-.4,19.27-.43,21-.07,5.4-.09,10.79-.1,16.19,0,6.87,0,13.75,0,20.62v15h0v39.68c0,6.16-3.62,9.76-9.8,9.83l-4.83.07v0h-16v0h-2.74l-18.48,24.13,28.67,0,8.56,0v.07Z"/>
      <path d="M351.12,90.69c6,.06,9.66,4.77,9.76,12.45,0,1.43,0,2.86,0,4.29v54.66c.76-.43,1.11-.49,1.31-.75,5.75-7.41,12.83,4.56,18.46-3,.78-1-.14-22.36-.14-23.91,0-2.29,0-4.57,0-6.86,0-6.26,0-12.51,0-18.77h0q0-6.75,0-13.52c0-3.28,0-6.57,0-9.86h0c0-1.3,0-2.61,0-3.92,0-11.6-6.18-19.43-15.18-19.44q-15.6,0-31.21,0c-1.16,0-2.33.12-3.58.19V90.67C337.59,90.67,344.35,90.61,351.12,90.69Z"/>
    </g>
  </symbol>
  <symbol id="cog" role="img" viewBox="0 0 512 512">
    <path fill="currentColor" d="M487.4 315.7l-42.6-24.6c4.3-23.2 4.3-47 0-70.2l42.6-24.6c4.9-2.8 7.1-8.6 5.5-14-11.1-35.6-30-67.8-54.7-94.6-3.8-4.1-10-5.1-14.8-2.3L380.8 110c-17.9-15.4-38.5-27.3-60.8-35.1V25.8c0-5.6-3.9-10.5-9.4-11.7-36.7-8.2-74.3-7.8-109.2 0-5.5 1.2-9.4 6.1-9.4 11.7V75c-22.2 7.9-42.8 19.8-60.8 35.1L88.7 85.5c-4.9-2.8-11-1.9-14.8 2.3-24.7 26.7-43.6 58.9-54.7 94.6-1.7 5.4.6 11.2 5.5 14L67.3 221c-4.3 23.2-4.3 47 0 70.2l-42.6 24.6c-4.9 2.8-7.1 8.6-5.5 14 11.1 35.6 30 67.8 54.7 94.6 3.8 4.1 10 5.1 14.8 2.3l42.6-24.6c17.9 15.4 38.5 27.3 60.8 35.1v49.2c0 5.6 3.9 10.5 9.4 11.7 36.7 8.2 74.3 7.8 109.2 0 5.5-1.2 9.4-6.1 9.4-11.7v-49.2c22.2-7.9 42.8-19.8 60.8-35.1l42.6 24.6c4.9 2.8 11 1.9 14.8-2.3 24.7-26.7 43.6-58.9 54.7-94.6 1.5-5.5-.7-11.3-5.6-14.1zM256 336c-44.1 0-80-35.9-80-80s35.9-80 80-80 80 35.9 80 80-35.9 80-80 80z"/>
  </symbol>
  <symbol id="clipboard" role="img" viewBox="0 0 384 512">
    <path fill="currentColor" d="M336 64h-80c0-35.3-28.7-64-64-64s-64 28.7-64 64H48C21.5 64 0 85.5 0 112v352c0 26.5 21.5 48 48 48h288c26.5 0 48-21.5 48-48V112c0-26.5-21.5-48-48-48zM192 40c13.3 0 24 10.7 24 24s-10.7 24-24 24-24-10.7-24-24 10.7-24 24-24zm144 418c0 3.3-2.7 6-6 6H54c-3.3 0-6-2.7-6-6V118c0-3.3 2.7-6 6-6h42v36c0 6.6 5.4 12 12 12h168c6.6 0 12-5.4 12-12v-36h42c3.3 0 6 2.7 6 6z"></path>
  </symbol>
  <symbol id="pencil" role="img" viewBox="0 0 512 512">
    <path fill="currentColor" d="M497.9 142.1l-46.1 46.1c-4.7 4.7-12.3 4.7-17 0l-111-111c-4.7-4.7-4.7-12.3 0-17l46.1-46.1c18.7-18.7 49.1-18.7 67.9 0l60.1 60.1c18.8 18.7 18.8 49.1 0 67.9zM284.2 99.8L21.6 362.4.4 483.9c-2.9 16.4 11.4 30.6 27.8 27.8l121.5-21.3 262.6-262.6c4.7-4.7 4.7-12.3 0-17l-111-111c-4.8-4.7-12.4-4.7-17.1 0zM124.1 339.9c-5.5-5.5-5.5-14.3 0-19.8l154-154c5.5-5.5 14.3-5.5 19.8 0s5.5 14.3 0 19.8l-154 154c-5.5 5.5-14.3 5.5-19.8 0zM88 424h48v36.3l-64.5 11.3-31.1-31.1L51.7 376H88v48z"></path>
  </symbol>
</svg>